<?xml version="1.0" encoding="utf-8"?>
<!-- Generator: Adobe Illustrator 25.2.3, SVG Export Plug-In . SVG Version: 6.00 Build 0)  -->
<svg version="1.1" id="Layer_1" xmlns="http://www.w3.org/2000/svg" xmlns:xlink="http://www.w3.org/1999/xlink" x="0px" y="0px"
	 viewBox="0 0 100 106" style="enable-background:new 0 0 100 106;" xml:space="preserve">
<style type="text/css">
	.st0{fill:#FFFFFF;}
</style>
<path class="st0" d="M72.3,39.4h-5.2v-8.8c0-9.4-7.7-17.1-17.1-17.1s-17.1,7.7-17.1,17.1v8.8h-5.2c-3.6,0-6.5,2.9-6.5,6.5v34.2
	c0,3.6,2.9,6.5,6.5,6.5h44.7c3.6,0,6.5-2.9,6.5-6.5V45.9C78.8,42.3,75.9,39.4,72.3,39.4z M35.9,30.6c0-7.8,6.3-14.1,14.1-14.1
	s14.1,6.3,14.1,14.1v8.8H35.9V30.6z M75.8,80.1c0,1.9-1.6,3.5-3.5,3.5H27.7c-1.9,0-3.5-1.6-3.5-3.5V45.9c0-1.9,1.6-3.5,3.5-3.5h5.2
	v12.3h3V42.4h28.2v12.3h3V42.4h5.2c1.9,0,3.5,1.6,3.5,3.5V80.1z"/>
</svg>
