<?xml version="1.0" encoding="utf-8"?>
<!-- Generator: Adobe Illustrator 25.2.3, SVG Export Plug-In . SVG Version: 6.00 Build 0)  -->
<svg version="1.1" id="Layer_1" xmlns="http://www.w3.org/2000/svg" xmlns:xlink="http://www.w3.org/1999/xlink" x="0px" y="0px"
	 viewBox="0 0 100 101" style="enable-background:new 0 0 100 101;" xml:space="preserve">
<style type="text/css">
	.st0{fill:#FFFFFF;}
</style>
<path class="st0" d="M50,50.3c8.5,0,15.5-6.9,15.5-15.5s-7-15.4-15.5-15.4s-15.5,6.9-15.5,15.5S41.5,50.3,50,50.3z M50,22.4
	c6.9,0,12.5,5.6,12.5,12.5S56.9,47.4,50,47.4s-12.5-5.6-12.5-12.5S43.1,22.4,50,22.4z M76.6,78.7c-3.1-13-14-22.2-26.6-22.2
	s-23.5,9.1-26.6,22.2L23,80.5h54.1L76.6,78.7z M26.8,77.6c3.3-10.7,12.6-18,23.2-18s19.9,7.3,23.2,18H26.8z"/>
</svg>
