<?xml version="1.0" encoding="utf-8"?>
<!-- Generator: Adobe Illustrator 25.2.3, SVG Export Plug-In . SVG Version: 6.00 Build 0)  -->
<svg version="1.1" id="Layer_1" xmlns="http://www.w3.org/2000/svg" xmlns:xlink="http://www.w3.org/1999/xlink" x="0px" y="0px"
	 viewBox="0 0 100 101" style="enable-background:new 0 0 100 101;" xml:space="preserve">
<style type="text/css">
	.st0{fill:#FFFFFF;}
</style>
<path class="st0" d="M79,77.3L63.5,61.9c9.1-9.7,8.9-25-0.6-34.5c-9.7-9.7-25.4-9.7-35.1,0s-9.7,25.4,0,35.1
	c4.8,4.8,11.2,7.3,17.6,7.3c5.7,0,11.4-1.9,16-5.8l15.5,15.5L79,77.3z M30,60.4c-8.5-8.5-8.5-22.4,0-30.9c4.3-4.3,9.8-6.4,15.4-6.4
	s11.2,2.1,15.4,6.4c8.5,8.5,8.5,22.4,0,30.9S38.5,68.9,30,60.4z"/>
</svg>
